<svg width="80" height="80" viewBox="0 0 80 80" fill="none" xmlns="http://www.w3.org/2000/svg">
<g clip-path="url(#clip0_1_58)">
<path d="M65 5C67.6522 5 70.1957 6.05357 72.0711 7.92893C73.9464 9.8043 75 12.3478 75 15V65C75 67.6522 73.9464 70.1957 72.0711 72.0711C70.1957 73.9464 67.6522 75 65 75H15C12.3478 75 9.8043 73.9464 7.92893 72.0711C6.05357 70.1957 5 67.6522 5 65V15C5 12.3478 6.05357 9.8043 7.92893 7.92893C9.8043 6.05357 12.3478 5 15 5H65ZM15 0C11.0218 0 7.20644 1.58035 4.3934 4.3934C1.58035 7.20644 0 11.0218 0 15L0 65C0 68.9782 1.58035 72.7936 4.3934 75.6066C7.20644 78.4196 11.0218 80 15 80H65C68.9782 80 72.7936 78.4196 75.6066 75.6066C78.4196 72.7936 80 68.9782 80 65V15C80 11.0218 78.4196 7.20644 75.6066 4.3934C72.7936 1.58035 68.9782 0 65 0L15 0Z" fill="#FF5E62"/>
<path d="M27.5 20C27.5 21.9891 26.7098 23.8968 25.3033 25.3033C23.8968 26.7098 21.9891 27.5 20 27.5C18.0109 27.5 16.1032 26.7098 14.6967 25.3033C13.2902 23.8968 12.5 21.9891 12.5 20C12.5 18.0109 13.2902 16.1032 14.6967 14.6967C16.1032 13.2902 18.0109 12.5 20 12.5C21.9891 12.5 23.8968 13.2902 25.3033 14.6967C26.7098 16.1032 27.5 18.0109 27.5 20ZM67.5 20C67.5 21.9891 66.7098 23.8968 65.3033 25.3033C63.8968 26.7098 61.9891 27.5 60 27.5C58.0109 27.5 56.1032 26.7098 54.6967 25.3033C53.2902 23.8968 52.5 21.9891 52.5 20C52.5 18.0109 53.2902 16.1032 54.6967 14.6967C56.1032 13.2902 58.0109 12.5 60 12.5C61.9891 12.5 63.8968 13.2902 65.3033 14.6967C66.7098 16.1032 67.5 18.0109 67.5 20ZM67.5 60C67.5 61.9891 66.7098 63.8968 65.3033 65.3033C63.8968 66.7098 61.9891 67.5 60 67.5C58.0109 67.5 56.1032 66.7098 54.6967 65.3033C53.2902 63.8968 52.5 61.9891 52.5 60C52.5 58.0109 53.2902 56.1032 54.6967 54.6967C56.1032 53.2902 58.0109 52.5 60 52.5C61.9891 52.5 63.8968 53.2902 65.3033 54.6967C66.7098 56.1032 67.5 58.0109 67.5 60ZM67.5 40C67.5 41.9891 66.7098 43.8968 65.3033 45.3033C63.8968 46.7098 61.9891 47.5 60 47.5C58.0109 47.5 56.1032 46.7098 54.6967 45.3033C53.2902 43.8968 52.5 41.9891 52.5 40C52.5 38.0109 53.2902 36.1032 54.6967 34.6967C56.1032 33.2902 58.0109 32.5 60 32.5C61.9891 32.5 63.8968 33.2902 65.3033 34.6967C66.7098 36.1032 67.5 38.0109 67.5 40ZM27.5 60C27.5 61.9891 26.7098 63.8968 25.3033 65.3033C23.8968 66.7098 21.9891 67.5 20 67.5C18.0109 67.5 16.1032 66.7098 14.6967 65.3033C13.2902 63.8968 12.5 61.9891 12.5 60C12.5 58.0109 13.2902 56.1032 14.6967 54.6967C16.1032 53.2902 18.0109 52.5 20 52.5C21.9891 52.5 23.8968 53.2902 25.3033 54.6967C26.7098 56.1032 27.5 58.0109 27.5 60ZM27.5 40C27.5 41.9891 26.7098 43.8968 25.3033 45.3033C23.8968 46.7098 21.9891 47.5 20 47.5C18.0109 47.5 16.1032 46.7098 14.6967 45.3033C13.2902 43.8968 12.5 41.9891 12.5 40C12.5 38.0109 13.2902 36.1032 14.6967 34.6967C16.1032 33.2902 18.0109 32.5 20 32.5C21.9891 32.5 23.8968 33.2902 25.3033 34.6967C26.7098 36.1032 27.5 38.0109 27.5 40Z" fill="#FF5E62"/>
</g>
<defs>
<clipPath id="clip0_1_58">
<rect width="80" height="80" fill="white"/>
</clipPath>
</defs>
</svg>
