<svg width="25" height="25" viewBox="0 0 25 25" fill="none" xmlns="http://www.w3.org/2000/svg">
<g clip-path="url(#clip0_8_49)">
<path d="M20.0266 12.0399V13.1308C20.0266 13.2899 19.9755 13.4206 19.8732 13.5229C19.7709 13.6251 19.6402 13.6763 19.4812 13.6763H13.4812V19.6763C13.4812 19.8354 13.43 19.966 13.3277 20.0683C13.2255 20.1706 13.0948 20.2217 12.9357 20.2217H11.8448C11.6857 20.2217 11.555 20.1706 11.4527 20.0683C11.3505 19.966 11.2993 19.8354 11.2993 19.6763V13.6763H5.29933C5.14024 13.6763 5.00956 13.6251 4.90729 13.5229C4.80502 13.4206 4.75388 13.2899 4.75388 13.1308V12.0399C4.75388 11.8808 4.80502 11.7501 4.90729 11.6479C5.00956 11.5456 5.14024 11.4944 5.29933 11.4944H11.2993V5.49445C11.2993 5.33536 11.3505 5.20468 11.4527 5.1024C11.555 5.00013 11.6857 4.94899 11.8448 4.94899H12.9357C13.0948 4.94899 13.2255 5.00013 13.3277 5.1024C13.43 5.20468 13.4812 5.33536 13.4812 5.49445V11.4944H19.4812C19.6402 11.4944 19.7709 11.5456 19.8732 11.6479C19.9755 11.7501 20.0266 11.8808 20.0266 12.0399ZM22.2084 19.6763V5.49445C22.2084 4.74445 21.9414 4.1024 21.4073 3.56831C20.8732 3.03422 20.2312 2.76718 19.4812 2.76718H5.29933C4.54933 2.76718 3.90729 3.03422 3.3732 3.56831C2.83911 4.1024 2.57206 4.74445 2.57206 5.49445V19.6763C2.57206 20.4263 2.83911 21.0683 3.3732 21.6024C3.90729 22.1365 4.54933 22.4035 5.29933 22.4035H19.4812C20.2312 22.4035 20.8732 22.1365 21.4073 21.6024C21.9414 21.0683 22.2084 20.4263 22.2084 19.6763ZM24.3902 5.49445V19.6763C24.3902 21.0285 23.9101 22.1848 22.9499 23.145C21.9897 24.1052 20.8334 24.5854 19.4812 24.5854H5.29933C3.94706 24.5854 2.79081 24.1052 1.83058 23.145C0.870357 22.1848 0.390244 21.0285 0.390244 19.6763V5.49445C0.390244 4.14218 0.870357 2.98593 1.83058 2.0257C2.79081 1.06547 3.94706 0.585358 5.29933 0.585358H19.4812C20.8334 0.585358 21.9897 1.06547 22.9499 2.0257C23.9101 2.98593 24.3902 4.14218 24.3902 5.49445Z" fill="#FF5E62"/>
</g>
<defs>
<clipPath id="clip0_8_49">
<rect width="24" height="24" fill="white" transform="translate(0.390244 0.585358)"/>
</clipPath>
</defs>
</svg>
