<svg width="24" height="24" viewBox="0 0 24 24" fill="none" xmlns="http://www.w3.org/2000/svg">
<path d="M9 7.5H5.085C6.05501 6.00924 7.48081 4.87187 9.14986 4.25743C10.8189 3.64299 12.6418 3.58438 14.3469 4.09034C16.052 4.59629 17.5479 5.63973 18.6117 7.06509C19.6755 8.49046 20.2501 10.2214 20.25 12H21.75C21.7521 9.99412 21.1354 8.03641 19.9841 6.39383C18.8328 4.75125 17.2029 3.50374 15.3166 2.8214C13.4304 2.13907 11.3796 2.05512 9.44384 2.581C7.50811 3.10689 5.7817 4.21701 4.5 5.76V3H3V9H9V7.5Z" fill="#FF5E62"/>
<path d="M15 16.5H18.915C17.945 17.9908 16.5192 19.1281 14.8501 19.7426C13.1811 20.357 11.3582 20.4156 9.65308 19.9097C7.948 19.4037 6.45209 18.3603 5.38832 16.9349C4.32455 15.5095 3.74989 13.7786 3.75001 12H2.25001C2.24794 14.0059 2.8646 15.9636 4.0159 17.6062C5.1672 19.2488 6.79711 20.4963 8.68337 21.1786C10.5696 21.8609 12.6204 21.9449 14.5562 21.419C16.4919 20.8931 18.2183 19.783 19.5 18.24V21H21V15H15V16.5Z" fill="#FF5E62"/>
</svg>
