<svg width="80" height="80" viewBox="0 0 80 80" fill="none" xmlns="http://www.w3.org/2000/svg">
<g clip-path="url(#clip0_1_53)">
<path d="M40 47.5C44.1421 47.5 47.5 44.1421 47.5 40C47.5 35.8579 44.1421 32.5 40 32.5C35.8579 32.5 32.5 35.8579 32.5 40C32.5 44.1421 35.8579 47.5 40 47.5Z" fill="#FF5E62"/>
<path d="M65 5C67.6522 5 70.1957 6.05357 72.0711 7.92893C73.9464 9.8043 75 12.3478 75 15V65C75 67.6522 73.9464 70.1957 72.0711 72.0711C70.1957 73.9464 67.6522 75 65 75H15C12.3478 75 9.8043 73.9464 7.92893 72.0711C6.05357 70.1957 5 67.6522 5 65V15C5 12.3478 6.05357 9.8043 7.92893 7.92893C9.8043 6.05357 12.3478 5 15 5H65ZM15 0C11.0218 0 7.20644 1.58035 4.3934 4.3934C1.58035 7.20644 0 11.0218 0 15L0 65C0 68.9782 1.58035 72.7936 4.3934 75.6066C7.20644 78.4196 11.0218 80 15 80H65C68.9782 80 72.7936 78.4196 75.6066 75.6066C78.4196 72.7936 80 68.9782 80 65V15C80 11.0218 78.4196 7.20644 75.6066 4.3934C72.7936 1.58035 68.9782 0 65 0L15 0Z" fill="#FF5E62"/>
</g>
<defs>
<clipPath id="clip0_1_53">
<rect width="80" height="80" fill="white"/>
</clipPath>
</defs>
</svg>
