<svg width="592" height="112" viewBox="0 0 592 112" fill="none" xmlns="http://www.w3.org/2000/svg">
<rect x="290.371" y="4.16528" width="74" height="74" rx="15" transform="rotate(34.0416 290.371 4.16528)" fill="#353535"/>
<g clip-path="url(#clip0_2_46)">
<path d="M296.12 61.7518C299.552 64.0705 304.214 63.1678 306.533 59.7355C308.852 56.3032 307.949 51.641 304.517 49.3223C301.084 47.0036 296.422 47.9063 294.103 51.3386C291.785 54.7709 292.687 59.433 296.12 61.7518Z" fill="white"/>
<path d="M340.627 40.5298C342.824 42.0145 344.342 44.3114 344.846 46.9152C345.351 49.519 344.8 52.2164 343.315 54.4141L315.325 95.8456C313.841 98.0433 311.544 99.5612 308.94 100.065C306.336 100.57 303.639 100.019 301.441 98.534L260.01 70.5443C257.812 69.0596 256.294 66.7627 255.79 64.1589C255.286 61.5551 255.837 58.8577 257.321 56.66L285.311 15.2284C286.796 13.0308 289.092 11.5129 291.696 11.0087C294.3 10.5046 296.998 11.0554 299.195 12.5401L340.627 40.5298ZM301.994 8.39692C298.698 6.16992 294.652 5.34366 290.746 6.09991C286.84 6.85616 283.395 9.13297 281.168 12.4295L253.178 53.861C250.951 57.1575 250.125 61.2037 250.881 65.1094C251.637 69.0151 253.914 72.4604 257.211 74.6874L298.642 102.677C301.939 104.904 305.985 105.73 309.891 104.974C313.796 104.218 317.242 101.941 319.469 98.6446L347.458 57.2131C349.685 53.9166 350.512 49.8704 349.755 45.9647C348.999 42.059 346.722 38.6137 343.426 36.3867L301.994 8.39692Z" fill="#353535"/>
</g>
<rect x="188.114" y="42.9775" width="74" height="74" rx="15" transform="rotate(-30.8354 188.114 42.9775)" fill="white"/>
<g clip-path="url(#clip1_2_46)">
<path d="M243.042 12.517C245.346 11.1413 248.096 10.7267 250.687 11.3642C253.278 12.0017 255.497 13.6392 256.857 15.9165L282.485 58.8486C283.845 61.1259 284.233 63.8563 283.565 66.4394C282.896 69.0224 281.226 71.2464 278.922 72.622L235.477 98.5571C233.172 99.9327 230.422 100.347 227.831 99.7099C225.24 99.0724 223.021 97.4349 221.662 95.1576L196.033 52.2255C194.674 49.9482 194.285 47.2177 194.954 44.6347C195.622 42.0517 197.292 39.8277 199.596 38.452L243.042 12.517ZM197.034 34.1588C193.577 36.2223 191.072 39.5583 190.069 43.4328C189.067 47.3074 189.649 51.4031 191.689 54.819L217.317 97.7511C219.356 101.167 222.685 103.623 226.571 104.58C230.458 105.536 234.583 104.914 238.04 102.85L281.485 76.9153C284.942 74.8517 287.447 71.5158 288.449 67.6412C289.451 63.7667 288.869 59.671 286.83 56.2551L261.201 13.3229C259.162 9.90705 255.833 7.45079 251.947 6.49452C248.061 5.53825 243.936 6.16029 240.479 8.22381L197.034 34.1588Z" fill="white"/>
<path d="M218.146 44.8479C219.166 46.5559 219.457 48.6038 218.956 50.541C218.455 52.4783 217.202 54.1463 215.474 55.178C213.746 56.2098 211.683 56.5208 209.74 56.0427C207.797 55.5645 206.132 54.3364 205.113 52.6285C204.093 50.9205 203.802 48.8726 204.303 46.9354C204.804 44.9981 206.057 43.3301 207.785 42.2984C209.514 41.2666 211.576 40.9556 213.519 41.4337C215.462 41.9119 217.127 43.14 218.146 44.8479V44.8479ZM252.903 24.0999C253.922 25.8079 254.213 27.8557 253.712 29.793C253.211 31.7303 251.959 33.3982 250.23 34.43C248.502 35.4618 246.439 35.7728 244.496 35.2947C242.553 34.8165 240.889 33.5884 239.869 31.8804C238.85 30.1725 238.558 28.1246 239.059 26.1874C239.561 24.2501 240.813 22.5821 242.542 21.5504C244.27 20.5186 246.333 20.2076 248.276 20.6857C250.219 21.1639 251.883 22.392 252.903 24.0999V24.0999ZM273.406 58.4457C274.425 60.1536 274.716 62.2015 274.215 64.1387C273.714 66.076 272.462 67.744 270.733 68.7757C269.005 69.8075 266.942 70.1185 264.999 69.6404C263.056 69.1622 261.392 67.9341 260.372 66.2262C259.352 64.5182 259.061 62.4704 259.562 60.5331C260.064 58.5958 261.316 56.9278 263.045 55.8961C264.773 54.8643 266.835 54.5533 268.779 55.0314C270.722 55.5096 272.386 56.7377 273.406 58.4457ZM238.649 79.1937C239.669 80.9016 239.96 82.9495 239.459 84.8867C238.958 86.824 237.705 88.492 235.977 89.5237C234.249 90.5555 232.186 90.8665 230.243 90.3884C228.3 89.9103 226.635 88.6821 225.616 86.9742C224.596 85.2662 224.305 83.2184 224.806 81.2811C225.307 79.3438 226.56 77.6759 228.288 76.6441C230.017 75.6123 232.079 75.3013 234.022 75.7795C235.965 76.2576 237.63 77.4857 238.649 79.1937ZM245.776 51.6468C246.796 53.3547 247.087 55.4026 246.586 57.3399C246.084 59.2771 244.832 60.9451 243.104 61.9769C241.375 63.0086 239.313 63.3197 237.37 62.8415C235.426 62.3634 233.762 61.1353 232.742 59.4273C231.723 57.7194 231.432 55.6715 231.933 53.7342C232.434 51.797 233.687 50.129 235.415 49.0972C237.143 48.0655 239.206 47.7544 241.149 48.2326C243.092 48.7107 244.756 49.9389 245.776 51.6468V51.6468Z" fill="#353535"/>
</g>
<path d="M22.5391 83H10.1562L10.2344 73.8594H22.5391C25.612 73.8594 28.2031 73.1693 30.3125 71.7891C32.4219 70.3828 34.0104 68.3385 35.0781 65.6562C36.1719 62.974 36.7188 59.7318 36.7188 55.9297V53.1562C36.7188 50.2396 36.4062 47.6745 35.7812 45.4609C35.1823 43.2474 34.2839 41.3854 33.0859 39.875C31.888 38.3646 30.4167 37.2318 28.6719 36.4766C26.9271 35.6953 24.9219 35.3047 22.6562 35.3047H9.92188V26.125H22.6562C26.4583 26.125 29.9349 26.776 33.0859 28.0781C36.263 29.3542 39.0104 31.1901 41.3281 33.5859C43.6458 35.9818 45.4297 38.8464 46.6797 42.1797C47.9557 45.487 48.5938 49.1719 48.5938 53.2344V55.9297C48.5938 59.9661 47.9557 63.651 46.6797 66.9844C45.4297 70.3177 43.6458 73.1823 41.3281 75.5781C39.0365 77.9479 36.2891 79.7839 33.0859 81.0859C29.9089 82.362 26.3932 83 22.5391 83ZM16.7969 26.125V83H5.07812V26.125H16.7969ZM69.5703 26.125V83H57.8906V26.125H69.5703ZM113.516 64.1328H125.195C124.961 67.9609 123.906 71.3594 122.031 74.3281C120.182 77.2969 117.591 79.6146 114.258 81.2812C110.951 82.9479 106.966 83.7812 102.305 83.7812C98.6589 83.7812 95.3906 83.1562 92.5 81.9062C89.6094 80.6302 87.1354 78.8073 85.0781 76.4375C83.0469 74.0677 81.4974 71.2031 80.4297 67.8438C79.362 64.4844 78.8281 60.7214 78.8281 56.5547V52.6094C78.8281 48.4427 79.375 44.6797 80.4688 41.3203C81.5885 37.9349 83.1771 35.0573 85.2344 32.6875C87.3177 30.3177 89.8047 28.4948 92.6953 27.2188C95.5859 25.9427 98.8151 25.3047 102.383 25.3047C107.122 25.3047 111.12 26.1641 114.375 27.8828C117.656 29.6016 120.195 31.9714 121.992 34.9922C123.815 38.013 124.909 41.4505 125.273 45.3047H113.555C113.424 43.013 112.969 41.0729 112.188 39.4844C111.406 37.8698 110.221 36.6589 108.633 35.8516C107.07 35.0182 104.987 34.6016 102.383 34.6016C100.43 34.6016 98.724 34.9661 97.2656 35.6953C95.8073 36.4245 94.5833 37.5312 93.5938 39.0156C92.6042 40.5 91.862 42.375 91.3672 44.6406C90.8984 46.8802 90.6641 49.5104 90.6641 52.5312V56.5547C90.6641 59.4974 90.8854 62.0885 91.3281 64.3281C91.7708 66.5417 92.4479 68.4167 93.3594 69.9531C94.2969 71.4635 95.4948 72.6094 96.9531 73.3906C98.4375 74.1458 100.221 74.5234 102.305 74.5234C104.753 74.5234 106.771 74.1328 108.359 73.3516C109.948 72.5703 111.159 71.4115 111.992 69.875C112.852 68.3385 113.359 66.4245 113.516 64.1328ZM171.055 73.8594V83H140.781V73.8594H171.055ZM144.609 26.125V83H132.891V26.125H144.609ZM167.109 49.2891V58.1953H140.781V49.2891H167.109ZM171.016 26.125V35.3047H140.781V26.125H171.016Z" fill="white"/>
<path d="M418.156 53.2734V75.8125C417.271 76.8802 415.904 78.0391 414.055 79.2891C412.206 80.513 409.823 81.5677 406.906 82.4531C403.99 83.3385 400.461 83.7812 396.32 83.7812C392.648 83.7812 389.302 83.1823 386.281 81.9844C383.26 80.7604 380.656 78.9766 378.469 76.6328C376.307 74.2891 374.641 71.4245 373.469 68.0391C372.297 64.6276 371.711 60.7344 371.711 56.3594V52.8047C371.711 48.4297 372.271 44.5365 373.391 41.125C374.536 37.7135 376.164 34.8359 378.273 32.4922C380.383 30.1484 382.896 28.3646 385.812 27.1406C388.729 25.9167 391.971 25.3047 395.539 25.3047C400.487 25.3047 404.549 26.112 407.727 27.7266C410.904 29.3151 413.326 31.5286 414.992 34.3672C416.685 37.1797 417.727 40.4089 418.117 44.0547H406.75C406.464 42.1276 405.917 40.4479 405.109 39.0156C404.302 37.5833 403.143 36.4635 401.633 35.6562C400.148 34.849 398.221 34.4453 395.852 34.4453C393.898 34.4453 392.154 34.849 390.617 35.6562C389.107 36.4375 387.831 37.5964 386.789 39.1328C385.747 40.6693 384.953 42.5703 384.406 44.8359C383.859 47.1016 383.586 49.7318 383.586 52.7266V56.3594C383.586 59.3281 383.872 61.9583 384.445 64.25C385.018 66.5156 385.865 68.4297 386.984 69.9922C388.13 71.5286 389.536 72.6875 391.203 73.4688C392.87 74.25 394.81 74.6406 397.023 74.6406C398.872 74.6406 400.409 74.4844 401.633 74.1719C402.883 73.8594 403.885 73.4818 404.641 73.0391C405.422 72.5703 406.021 72.1276 406.438 71.7109V61.6328H395.734V53.2734H418.156ZM450.734 35.8516L435.266 83H422.805L443.938 26.125H451.867L450.734 35.8516ZM463.586 83L448.078 35.8516L446.828 26.125H454.836L476.086 83H463.586ZM462.883 61.8281V71.0078H432.844V61.8281H462.883ZM486.711 26.125H496.633L511.242 67.8828L525.852 26.125H535.773L515.227 83H507.258L486.711 26.125ZM481.359 26.125H491.242L493.039 66.8281V83H481.359V26.125ZM531.242 26.125H541.164V83H529.445V66.8281L531.242 26.125ZM589.602 73.8594V83H559.328V73.8594H589.602ZM563.156 26.125V83H551.438V26.125H563.156ZM585.656 49.2891V58.1953H559.328V49.2891H585.656ZM589.562 26.125V35.3047H559.328V26.125H589.562Z" fill="white"/>
<defs>
<clipPath id="clip0_2_46">
<rect width="80" height="80" fill="white" transform="translate(289.565) rotate(34.0416)"/>
</clipPath>
<clipPath id="clip1_2_46">
<rect width="80.9562" height="80" fill="white" transform="translate(184 41.9393) rotate(-30.8354)"/>
</clipPath>
</defs>
</svg>
